<svg xmlns="http://www.w3.org/2000/svg" id="Layer_2" width="850" height="850" viewBox="0 0 850 850"><g id="Layer_1-2"><path d="M642.4,850c-2.9-1-5.7-1.9-8.6-2.9-21.8-7.4-36.1-26.9-36.2-50.4-.2-40.9,0-81.9,0-122.8,0-3,0-6,0-9.8-4.5,0-8.3.1-12,0-9.3-.3-14.3-5.2-14.5-14.5-.2-16.3-.3-32.6,0-49,0-4.9-1.5-7.3-5.9-9.4-37.6-17.9-66.7-44.9-87.3-81-2.7-4.7-5.8-5.5-10.6-5.5-75.8.1-151.6.3-227.4,0-52.3-.2-93.4-40.8-93.8-92-.4-51.9,40.8-93.6,93.6-93.8,72.5-.3,144.9-.4,217.4.2,12.2,0,19.2-2.8,26-13.9,43-69.6,125.8-104.8,206.2-88.9,81,16,143.5,80.2,157.7,162,.9,5.1,2,10.2,2.9,15.3v36.5c-.5,1.3-1.2,2.5-1.4,3.8-9.8,72.3-47.3,124.8-112.4,157.5-4.3,2.2-6,4.5-5.9,9.4.3,15.8.2,31.5,0,47.3,0,11.3-4.8,15.9-16.3,16.1-3.2,0-6.4,0-10.3,0,0,3.9,0,6.9,0,9.9,0,40.9.1,81.8,0,122.8-.1,24.3-15.6,44.5-38.5,51.2-2.1.6-4.2,1.3-6.2,2h-16.6ZM490,345.3c-82.1,0-164.3,0-246.4.1-7.7,0-15.6.7-22.9,2.8-31.5,8.8-52.1,40.4-47.5,71.7,5,34.5,32.3,58.2,67.8,58.2,167.3,0,334.7,0,502,.2,5.5,0,8.5-1.6,11.1-6.3,21.9-40.1,21.9-80.1.1-120.3-2.8-5.2-6.3-6.5-11.8-6.4-84.1.2-168.2.1-252.3.1ZM506.6,504.7c28.6,50.4,103.4,94.2,184.6,74.9,78.7-18.7,133.9-90.6,132.2-173.8-1.7-80.5-61.3-149-143.9-164.1-76.5-14-146.6,29.3-172.7,77.1,9.7,0,19,.2,28.3-.2,2.3-.1,5-1.9,6.7-3.7,35-37.9,77.9-53.9,129.1-47.7,81.2,9.8,140,91,123.3,171.4-12.1,58.2-47.1,97.4-104.1,113.4-57.5,16.1-107.5.2-148.4-43.6-1.5-1.7-3.9-3.5-5.9-3.6-9.5-.4-19.1-.2-29.1-.2ZM677.3,664.7h-53.1c0,44,0,87.4,0,130.8,0,16.1,11.6,27.9,26.7,27.8,15.1,0,26.3-11.9,26.4-28.2.1-26.5,0-53.1,0-79.6,0-16.8,0-33.6,0-50.9ZM597.9,636.9h105.4v-33.2c-35.4,9.7-70.3,9.5-105.4,0v33.2ZM577.7,318.3h146.1c-34.1-34-110-34.2-146.1,0ZM723.5,505.3h-145.7c36.1,34,111.7,33.8,145.7,0Z" fill="#f63" stroke-width="0"></path><path d="M637.5,132.8h-9.8c-97.4,0-194.8,0-292.1-.2-6.4,0-9.9,1.6-12.6,7.6-5.1,11.6-11.6,22.6-16.8,34.2-3.8,8.5-9.7,11.6-18.9,11.5-83.3-.2-166.5-.1-249.8-.1-3.3,0-6.6,0-11,0,0,3.4,0,6.3,0,9.3,0,132.8,0,265.6,0,398.4,0,27.6,16.2,43.9,43.7,43.9,151.3,0,302.6,0,454,0,13.7,0,19.9,4,20.2,13,.2,9.2-6.3,13.6-20.4,13.6-150.8,0-301.5,0-452.3,0C27.9,664,0,636.3,0,592.7,0,419,0,245.3,0,71.5,0,27.8,27.8,0,71.5,0c173.7,0,347.5,0,521.2,0,43.7,0,71.3,27.8,71.3,71.7,0,33.2,0,66.4,0,99.6,0,8.9-5.8,14.8-13.5,14.6-7.5-.2-12.6-5.8-12.9-14.4-.1-2.5,0-5,0-7.5,0-10,0-19.9,0-31.2ZM637.5,106.2c0-13.5,0-25.9,0-38.3-.2-24.3-17-41.3-41.3-41.3-176.2,0-352.5,0-528.7,0-23.7,0-40.7,17.2-40.8,40.9-.2,28.5,0,57,0,85.5,0,1.9,0,3.7,0,5.8,1.8.2,2.9.5,3.9.5,82.7,0,165.4,0,248.2-.2,2.7,0,6.5-2.7,7.8-5.2,6.4-11.6,12.4-23.5,17.8-35.5,4.1-9.1,10.1-12.3,20.1-12.3,100.7.3,201.4.2,302.1.2h11Z" fill="#f63" stroke-width="0"></path><path d="M265.6,430.1c-5.1,5.3-9.4,9.9-13.8,14.3-8.4,8.4-16.1,9.4-22.2,3.1-5.9-6.1-4.9-13.7,3.2-21.6,4.5-4.4,9.4-8.5,15.7-14.2-6.5-5.9-12-10.4-17-15.4-7-7-7.4-14.6-1.7-20.4,5.8-5.7,13.3-5.2,20.5,1.7,4.8,4.6,9.5,9.3,14.2,13.9.2.2.5.2,2.5,2.1,4.7-5.3,9.1-10.9,14.1-16,6.9-7,14.6-7.5,20.4-1.8,5.8,5.7,5.2,13.4-1.5,20.5-2.5,2.6-5,5.2-7.6,7.6-2.4,2.3-5,4.4-10,8.8,6.4,5.3,12.3,9.4,17.4,14.3,7.1,6.9,7.7,14.6,2.1,20.4-5.7,6-13.7,5.4-21-1.8-4.9-4.8-9.6-9.8-15.2-15.5Z" fill="#f63" stroke-width="0"></path><path d="M389.2,411.6c6.9,6.4,12.4,11.1,17.4,16.2,6.4,6.6,6.7,14.3,1.2,19.8-5.5,5.5-13.2,5.2-19.9-1-2.6-2.4-5.2-5-7.6-7.6-2.4-2.6-4.6-5.5-9.3-11-5.5,6.8-9.6,12.6-14.5,17.7-6.9,7.2-14.6,7.7-20.4,2.2-6.1-5.7-5.5-13.7,1.8-21,4.8-4.9,10-9.4,16-15-6.1-5.9-11.4-10.6-16.4-15.7-6.8-7-7.2-14.7-1.3-20.4,5.7-5.4,13.2-5,19.8,1.5,5.1,5,9.8,10.4,15.7,16.6,5.7-6,10.3-11,15.1-15.8,7.4-7.4,15.2-8,21-2,5.8,5.9,5,13.6-2.5,21-4.7,4.6-9.8,8.9-16.1,14.6Z" fill="#f63" stroke-width="0"></path><path d="M602.2,411.7c6.1,5.7,10.8,9.9,15.3,14.3,7.9,7.9,8.7,15.6,2.5,21.6-6,5.8-13.5,4.9-21-2.6-4.6-4.7-9-9.6-14.5-15.5-5.8,6.1-10.6,11.4-15.6,16.4-7,6.9-14.7,7.3-20.4,1.5-5.7-5.8-5.1-13.4,1.8-20.4,4.9-4.9,10.1-9.4,17.4-16.1-6.5-5.5-12.2-9.8-17.3-14.7-7.1-6.9-7.6-14.6-1.9-20.4,5.7-5.8,13.4-5.4,20.4,1.5,4.9,4.8,9.4,10,16.5,17.6,5.2-6.4,9.4-12.2,14.3-17.4,6.8-7.2,14.6-7.7,20.4-2.2,6.1,5.7,5.5,13.7-1.7,21-4.8,4.9-10,9.4-16.1,15.2Z" fill="#f63" stroke-width="0"></path><path d="M690.7,393.5c5.7-6,10.5-11.3,15.6-16.3,6.9-6.8,14.8-7.1,20.4-1.3,5.4,5.6,5,13.2-1.5,19.8-5,5.1-10.5,9.7-17.2,15.7,6.4,5.9,11.8,10.6,16.7,15.6,6.9,7,7.4,14.7,1.6,20.4-5.8,5.7-13.4,5.2-20.4-1.8-4.9-4.8-9.3-10.1-15.6-17-5.7,6.4-10.2,12-15.2,17-6.9,7-14.6,7.5-20.4,1.8-5.8-5.7-5.2-13.4,1.5-20.4,2.5-2.6,5-5.1,7.6-7.6,2.4-2.3,4.9-4.4,8.3-7.4-5.6-5.7-10.7-10.6-15.6-15.7-7-7.2-7.7-14.6-2.1-20.4,5.8-6.1,13.6-5.5,21,1.8,4.9,4.8,9.5,9.8,15.2,15.6Z" fill="#f63" stroke-width="0"></path><path d="M495.5,411.5c6.9,6.4,12.4,11.1,17.4,16.3,6.4,6.6,6.5,14.3.9,19.8-5.7,5.5-13.1,5.2-19.8-1.3-5.1-5-9.8-10.4-15.7-16.7-5.8,6.1-10.6,11.4-15.6,16.3-7,6.9-14.7,7.4-20.4,1.7-5.7-5.7-5.2-13.5,1.7-20.4,4.8-4.9,10-9.5,17.7-16.7-6.4-5.1-12.2-9.2-17.4-14.1-7.2-6.9-7.7-14.5-2.1-20.4,5.8-6.1,13.6-5.5,21,1.9,4.7,4.7,9.1,9.6,14.6,15.4,5.6-5.6,10.5-10.6,15.6-15.5,7.4-7.2,15.3-7.8,21-1.8,5.5,5.8,4.9,13.4-2.1,20.4-4.9,4.8-10.1,9.3-16.6,15.1Z" fill="#f63" stroke-width="0"></path><path d="M517.9,79.7c-25.5,0-50.9,0-76.4,0-10.5,0-16.5-5-16.5-13.3,0-8.3,6-13.3,16.5-13.3,50.9,0,101.8,0,152.7,0,10.5,0,16.5,5,16.6,13.2,0,8.3-6.1,13.3-16.5,13.3-25.5,0-50.9,0-76.4,0Z" fill="#f63" stroke-width="0"></path><path d="M83.2,106.3c5,0,10-.1,14.9,0,8.4.3,14.2,5.7,14.3,13,.1,7.3-5.7,13.2-13.9,13.4-10.5.3-21,.3-31.5,0-8.4-.2-14-5.9-13.8-13.4.1-7.5,5.7-12.7,14.2-13,5.2-.2,10.5,0,15.8,0Z" fill="#f63" stroke-width="0"></path><path d="M162.7,106.3c5.5,0,11.1-.3,16.6,0,7.3.5,12.6,6,12.8,12.8.2,7.1-5.3,13.2-12.9,13.5-11,.4-22.1.4-33.2,0-7.9-.2-13.2-6-13.2-13.2,0-7.2,5.3-12.7,13.3-13.1,5.5-.3,11.1,0,16.6,0Z" fill="#f63" stroke-width="0"></path><path d="M242.1,132.8c-5.5,0-11.1.3-16.6,0-7.8-.5-13.1-6.2-12.9-13.5.2-6.9,5.2-12.6,12.7-12.8,11.3-.4,22.7-.4,34,0,7.2.3,12.5,6.2,12.6,13,0,6.7-5.2,12.7-12.3,13.2-5.8.4-11.6,0-17.4,0,0,0,0,0,0,0Z" fill="#f63" stroke-width="0"></path></g></svg>