<svg xmlns="http://www.w3.org/2000/svg" id="Layer_2" width="849.9" height="850" viewBox="0 0 849.9 850"><g id="Layer_1-2"><path d="M849.9,672.3c-.5,1-1.1,1.9-1.3,2.9-6.2,28.7-26.5,45.4-55.9,45.4-88,0-175.9,0-263.9,0-3.3,0-6.5,0-11.8,0,3.2,35.3,6.3,69.5,9.5,104.4,15.2,0,28.4,0,41.6,0,9.8,0,15.5,4.6,15.7,12.1.2,7.9-5.8,12.7-16,12.7-95.4,0-190.9,0-286.3,0-9.6,0-15.5-4.8-15.5-12.4,0-7.6,5.8-12.4,15.4-12.5,4.1,0,8.3,0,12.4,0,9.1,0,18.2,0,29.5,0,3.2-34.7,6.3-68.9,9.6-104.4-5,0-8.2,0-11.4,0-87.1,0-174.3-.7-261.4.4C27.3,721.4-.1,697.9,0,660.8c.6-160.5.2-320.9.3-481.4,0-37.4,22.5-59.9,59.9-59.9,85.8,0,171.5,0,257.3.1,6,0,9.8-1.4,12.3-7,2.3-5,5.3-9.7,8.2-14.4,4.6-7.5,11.8-9.7,18.2-5.7,6.2,3.9,7.6,10.6,3.2,18.2-18.3,31.9-36.7,63.7-55.1,95.5-41.5,71.8-83,143.5-124.2,215.5-3.5,6.2-5.7,13.9-5.9,21-.3,11.3,8.6,21.2,19.7,23.7,4.5,1,9.3,1.2,14,1.2,144.7,0,289.4,0,434.1,0,1.7,0,3.3,0,5,0,24.2-.8,36.5-22.1,24.5-43.2-16.1-28.4-32.6-56.5-48.9-84.8-56.8-98.4-113.6-196.7-170.4-295.1-2.3-4-4.7-8.2-7.9-11.6-12.1-12.7-32.4-10.5-42.3,4.4-4.4,6.7-8,13.9-12.2,20.7-4.4,7.2-11.3,9.3-17.6,5.8-6.2-3.5-8-10.7-4-18,4.1-7.5,8.5-14.9,12.9-22.2,8.2-13.3,20.9-19.9,35.5-23.9h16.6c20.8,4.6,33.5,18.4,43.3,36.6,13.6,25.3,28.8,49.8,42.8,74.9,3.4,6.1,7,8.3,14.1,8.3,86.3-.3,172.6-.2,258.9-.2,29.4,0,49.9,16.7,56.2,45.2.2,1,.9,1.9,1.4,2.9v504.7ZM772.1,589.2c.2-3.6.4-6.3.4-9,0-122.3,0-244.6,0-366.8,0-10.8-1-11.9-11.9-11.9-60.3,0-120.6,0-180.9,0-2.3,0-4.6.4-7.8.7,5.5,9.5,10.3,17.9,15.1,26.2,35,60.6,69.8,121.2,104.9,181.6,7.8,13.5,11.4,27.6,7.5,42.9-6.5,25.4-26.8,39.8-56,39.8-125.6,0-251.2,0-376.8,0-21,0-42.1,0-63.1,0-21.3-.1-38.2-8.7-48.5-27.8-9.7-18.1-8-36,2.2-53.7,38.7-66.7,77.2-133.5,115.7-200.3,1.6-2.7,2.9-5.5,5-9.4h-9.9c-59.2,0-118.4,0-177.6,0-12.6,0-13.2.6-13.2,13.1,0,121.7,0,243.5,0,365.2,0,2.9.3,5.9.5,9.5h11.4c154.9,0,309.9,0,464.8,0,2.8,0,5.5-.1,8.3,0,7.2.6,11.2,4.9,11.6,11.7.4,6.6-3.4,11.1-9.9,12.5-3.4.8-7.1.5-10.7.5-172.4,0-344.7,0-517.1,0h-11c0,16.4,0,31.6,0,46.8,0,23.9,11.1,34.9,35.1,34.9,103.7,0,207.5,0,311.2,0,139.4,0,278.9,0,418.3,0,23.8,0,34.8-11.2,34.9-35.1,0-13.3,0-26.6,0-39.8,0-2.1-.4-4.2-.7-6.7h-10.5c-62,0-123.9,0-185.9,0-3.3,0-6.7,0-9.8-.8-6.4-1.9-9.4-6.6-8.6-13.3.8-6.3,4.7-9.8,10.9-10.6,2.5-.3,5-.1,7.5-.1,45.1,0,90.2,0,135.3,0h9.4ZM52.4,588.8c0-4.3,0-7.8,0-11.4,0-82.2,0-164.3,0-246.5,0-40.4,0-80.8,0-121.2,0-15.9,7.6-27.5,20.8-31.4,5.2-1.6,10.9-1.9,16.4-1.9,65-.1,130,0,195-.2,3.1,0,7.7-.2,9-2.1,6.2-9.3,11.5-19.2,17.7-29.9-4.1,0-6.6,0-9,0-81,0-162.1,0-243.1,0-22.5,0-34,11.6-34,34.5,0,133.6,0,267.2,0,400.8,0,2.9,0,5.9,0,9.2h27.2ZM538.6,144.4c4.8,8.3,9.2,14.7,12.3,21.7,3.6,8.1,8.8,10.7,17.8,10.6,64.4-.5,128.9-.2,193.3-.3,11,0,20.8,2.5,28.2,11.2,6.4,7.5,7.2,16.4,7.2,25.7,0,121.7,0,243.4,0,365.1,0,3.4.3,6.9.5,10h26.7v-8.9c0-133.3,0-266.6,0-400,0-23.8-11.3-35.1-35-35.1-80.5,0-161,0-241.5,0h-9.6ZM501.2,824.7c-3-34.6-6.1-68.9-9.1-103.5h-134.4c-3.1,34.8-6.1,69.1-9.1,103.5h152.6Z" fill="#f63" stroke-width="0"></path><path d="M384.7,218.6c0-21.8-.1-43.6,0-65.5.2-24.3,16.6-41.9,39.4-42.3,23.4-.4,41.3,16.7,41.6,41.1.4,44.5.4,89,0,133.4-.2,22-15.5,38.2-36.3,40.4-20.2,2.2-38.6-10.5-43.5-30.3-1.1-4.5-1.2-9.3-1.2-14-.1-21,0-42,0-63ZM409.6,217.8c0,21.6,0,43.2,0,64.7,0,11.8,5.7,18.5,15.3,18.7,9.6.2,16-6.8,16-18.2.1-43.2.1-86.3,0-129.5,0-11.5-6.4-18-16.3-17.7-9.5.3-14.9,6.7-15,18.1,0,21.3,0,42.6,0,63.9Z" fill="#f63" stroke-width="0"></path><path d="M425.3,433.8c-23.9.2-43.4-18.9-43.6-42.7-.1-23.9,18.9-43.3,42.8-43.7,23.6-.3,43.4,19.1,43.6,42.9.2,24-18.8,43.3-42.8,43.5ZM425,408.9c10,0,18-7.9,18.1-17.8.2-10.1-8.2-18.6-18.3-18.6-9.8,0-18,8.1-18.1,17.9-.2,10.2,8,18.5,18.3,18.4Z" fill="#f63" stroke-width="0"></path><path d="M424.6,667.3c-8.8,0-17.6.1-26.5,0-8.4-.1-13.7-4.8-14-12-.2-7.5,5.2-12.7,14-12.8,17.9-.2,35.8-.2,53.7,0,8.3,0,13.6,5.3,13.6,12.5,0,7.2-5.4,12.2-13.7,12.3-9.1.2-18.2,0-27.3,0Z" fill="#f63" stroke-width="0"></path></g></svg>