<svg xmlns="http://www.w3.org/2000/svg" id="Layer_2" width="820.3" height="850" viewBox="0 0 820.3 850"><g id="Layer_1-2"><path d="M636,850c-15-4-29.3-9.1-41.1-20-26.4-24.5-33-62.7-15.8-93.8,17.2-31.2,52.9-46.4,87.6-37.3,33.3,8.8,57.4,40.6,56.8,74.9-.6,35.6-25.2,66.2-59.8,74.3-2.1.5-4.1,1.2-6.1,1.9h-21.6ZM646.7,825c28.4,0,51.7-23.4,51.9-51.8.2-28.5-23.7-52.4-52.3-52.3-28.7.1-52,23.8-51.8,52.7.2,28.3,23.7,51.5,52.2,51.4Z" fill="#f63" stroke-width="0"></path><path d="M388.4,692.5c-8.9-.5-16.1,1.7-22.2,7.8-10,10-16.9,21.7-20.9,35.2-4.5,15.2-12.2,19.3-27.6,14.7-39.2-11.8-73.3-31.9-100.7-62.7-1.8-2.1-3.7-4.1-5.3-6.4-4.6-6.3-4.1-13.4,1.1-17.8,5.4-4.6,12.8-3.6,18.3,2.4,2.1,2.2,3.9,4.7,6,6.9,23.1,25.4,51.5,42.2,85.2,52.9,18.5-54.4,55.6-70.3,109.9-49.6-.4-5.8-.8-9.6-.9-13.4-.6-17.3,9-28,26.1-30.4,3.5-.5,7.3-3.1,9.7-5.8,5.6-6.1,9.9-13.3,15.6-19.3,26.9-28.4,58.8-33.8,96.1-16.6,4.5,2.1,8.8,4.5,14.2,7.3,4-17.3,6-34.4,3.8-51.7-3.2-26.4-13.3-50.7-24.5-74.5-26.6-56.4-60.7-108.4-95.7-159.9-1.5-2.2-5.3-4.1-8-4.1-48.4-.2-96.8-.2-145.2,0-2.7,0-6.5,1.8-8,4-39.1,58-77.2,116.5-105.3,181-17.8,40.9-20.7,82-6,124.3,3.1,9,.2,15.9-7.2,18.4-7.1,2.3-13.3-1.7-16.5-10.9-16.7-48-12.9-94.8,7-141.3,23.3-54.4,53.9-104.5,86.1-153.8,6.3-9.7,12.8-19.3,19.2-28.9-24.3-22.7-21.1-53,5.6-71.4-6.3-7-12.6-13.9-18.8-20.8-8.2-9-17-17.5-24.4-27.1-9.8-12.6-15.1-26.8-6.1-42.2,9.3-15.8,24.6-20.6,41.4-18.2,14.6,2.1,28.9,6.9,43.1,11.2,4.9,1.5,7.7,1.8,12-2.2,33.4-31.1,67.6-31.3,101.3.2,3.9,3.7,6.5,4,11.3,2.2,18.6-7.2,37.3-14.3,57.9-11.1,27.1,4.3,39.5,29,25.7,52.6-5.7,9.6-13.7,18-21.1,26.5-8.6,9.7-17.7,18.9-27.2,28.9,13,8.6,21.1,19.2,22.3,34,1.2,14.9-4.9,26.8-16.5,36.9,2.2,3.3,4.2,6.6,6.3,9.7,32.9,49.2,65,98.9,90,152.7,12.3,26.4,23.2,53.3,26.3,82.5,2.6,24.2-.6,48.1-7.6,71.3-3.7,12.4-17.2,15.9-28.3,7.8-14.7-10.8-30.6-17.4-49-17.8-12.1-.2-21.6,5.2-31.2,13.4,19.4,12.9,31.5,30.1,35.5,52.4,2.9,16.2.7,31.9-6.5,46.9-14.2,29.3-45.1,46.7-77.5,43.2-28.4-3.1-61.7-23.6-68.7-69.3ZM395.9,225.1c21,0,42,.2,63.1-.2,3.1,0,7.1-1.5,9.2-3.7,13-13.9,25.7-28.2,38.3-42.5,4.7-5.4,9.5-10.8,13.3-16.9,5.2-8.3,2.4-14.2-7.3-16.2-3.7-.8-7.9-1.1-11.5-.2-11.2,2.8-22.8,5.1-33.3,9.6-15.6,6.7-27.4,4.7-39.2-8.1-18.6-20.1-42.2-20.4-62.5-2.6-1.9,1.6-3.6,3.5-5.3,5.3-9.7,10.2-18.1,11.9-31.4,7.2-10.1-3.6-20.3-7.5-30.7-9.9-6.5-1.5-13.8-1.8-20.4-.7-8.4,1.4-11,7.5-6.5,14.7,4,6.5,9.2,12.4,14.3,18.2,12.4,14.1,24.9,28.1,37.8,41.9,2.1,2.2,6,3.9,9.1,3.9,21,.3,42,.2,63.1.2ZM395.2,282.5c26,0,51.9.1,77.9,0,10.8,0,18.1-7.1,17.9-16.5-.2-9.2-7.1-15.9-17.6-15.9-51.6-.2-103.3-.2-154.9.2-4.6,0-10.1,2.9-13.6,6.1-4.8,4.4-5.1,10.9-2.1,16.9,3.1,6.3,8.4,9.2,15.4,9.2,25.7,0,51.4,0,77.1,0ZM415,696.6c6.7,25.8,27.4,41.2,52.4,40.6,23.5-.6,44.4-18.2,48.9-41,4.7-23.7-6.7-47.3-27.8-56.8-5.5,11.6-14.2,18.5-27.9,18-1.4,0-4.4,4-4.1,5.9.6,5.4,2.3,10.7,3.9,16,4.6,15.1-6,26.8-21.4,23.4-7.7-1.7-15.3-3.9-24-6.1Z" fill="#f63" stroke-width="0"></path><path d="M191.7,214.5c6.4,0,11.8-.1,17.3,0,9.3.3,16.6,4,20.5,12.9,3.7,8.3,2.4,16.2-3.3,23.3-21,26.1-41.8,52.2-63.1,78.1-9.4,11.4-24.5,11.6-33.8.3-21.6-26.2-42.9-52.8-64.1-79.4-5.4-6.8-6.3-14.6-2.5-22.6,3.8-8,10.5-12,19.1-12.5,5.7-.3,11.5,0,18.4,0v-10.4c0-58.4,0-116.7,0-175.1C100.2,7.1,107.5,0,129.7,0c12.2,0,24.3,0,36.5,0,17.3,0,25.4,8,25.5,25.4,0,59.5,0,118.9,0,178.4,0,3.3,0,6.5,0,10.7ZM203.1,239.7c-3.5-.2-4.9-.4-6.2-.3-22.8,2-30.6-10.1-30.3-30.8.6-57.7.2-115.5.2-173.3,0-3.2,0-6.4,0-9.8h-41.7v9.6c0,45.9,0,91.7,0,137.6,0,14.6.2,29.3,0,43.9-.3,14.2-8.7,22.3-23,22.7-3.7,0-7.5,0-13.3,0,19.8,24.5,38.3,47.5,57.3,71,19.3-23.9,37.6-46.6,57-70.7Z" fill="#f63" stroke-width="0"></path><path d="M680.4,385.1c0-19.6,0-37.8,0-56,0-10.8-.1-21.6,0-32.4.2-8.5,5-13.7,12.2-13.8,7.1,0,12.4,5.3,12.5,13.7.2,30.2.3,60.3,0,90.5-.2,14.5-9.3,22.6-24,22.8-4.7,0-9.3,0-16,0,21.5,26.7,42.1,52.2,63.3,78.5,20.9-25.9,41.5-51.3,63.4-78.5-6.3,0-10.8,0-15.3,0-16.1-.2-24.6-8.4-24.6-24.6,0-57.3,0-114.5,0-171.8,0-3.3,0-6.5,0-10.4h-46.6c0,9.1,0,17.8,0,26.6,0,3,.2,6.1-.4,9.1-1.4,6.9-5.6,10.8-12.8,10.4-7.1-.4-11.3-4.6-11.5-11.7-.3-13.3-.4-26.6,0-39.8.4-10.9,8.6-19.4,19.7-19.8,18.5-.6,37.1-.6,55.6,0,11.4.3,19.3,8.7,20.5,20.2.5,4.4.3,8.8.3,13.3,0,54.2,0,108.5,0,162.7,0,3.3,0,6.6,0,10.9,7.1,0,13.7,0,20.2,0,9.5-.1,16.7,3.7,20.9,12.2,4.3,8.6,2.6,16.7-3.2,24-22.9,28.4-45.7,56.9-68.8,85.2-9.9,12.1-25,11.9-35-.3-22.9-28.1-45.6-56.3-68.3-84.5-5.9-7.3-7.7-15.3-3.6-24,4.2-9,11.7-12.8,21.5-12.6,6.3.1,12.6,0,20,0Z" fill="#f63" stroke-width="0"></path><path d="M115.9,664c4.9,0,8.5-.2,12.1,0,17,1,27.3,19.7,17.2,33.1-17.8,23.6-36.5,46.5-55.7,69-8,9.4-22.8,8.7-30.9-1-18.4-22.1-36.3-44.5-54.2-67.1-5.4-6.9-5.7-14.8-1.5-22.6,4-7.4,10.4-11.3,18.8-11.5,3.5,0,7.1,0,11.7,0,0-3.6,0-6.5,0-9.4,0-50,0-100,0-150.1,0-18,8.2-26.2,26.4-26.3,9.9,0,19.9,0,29.8,0,18,0,26.2,8.3,26.3,26.5,0,49.5,0,98.9,0,148.4,0,3.3,0,6.5,0,10.8ZM120,689.4c-23.7-2.1-29-7.9-29-30.4,0-48.7,0-97.3,0-146,0-3.2,0-6.3,0-9.4h-32.7c0,3.4,0,6.4,0,9.3,0,48.9,0,97.9,0,146.8,0,21.3-6,27.8-26.8,29.4-.3,0-.6.7-1.3,1.5,14.6,18.1,29.3,36.2,44.5,55.1,15.2-18.9,29.9-37.1,45.4-56.3Z" fill="#f63" stroke-width="0"></path><path d="M383.6,397.4c0-5.7-.2-11.5,0-17.3.3-7.7,5.4-13,12.2-13.1,6.8,0,12.2,5.1,12.5,12.8.3,5.8,0,11.5,0,15.9,10.9,5.4,21,9.8,30.4,15.3,7.5,4.4,8.9,12.4,4.6,18.4-4.3,5.9-11,6.9-18.3,2.1-9.4-6.3-19.5-11.1-31-9.6-5.5.7-11.5,2.8-15.7,6.3-8.1,6.7-6.4,17,3.1,21.3,9.8,4.5,20,7.9,29.9,12.1,6.1,2.6,12.4,5,17.9,8.6,28.7,18.9,27.3,55.6-2.7,72.4-5.5,3.1-11.6,4.9-18.2,7.6,0,5,.2,10.5,0,16-.3,8.2-5.6,13.4-12.9,13.2-6.9-.2-11.7-5.3-11.9-13.2-.2-5.8,0-11.6-1.8-15.5-11.3-7-23.2-13.4-33.9-21.3-7.7-5.7-7.9-13.8-2.5-19.4,5.4-5.6,12.3-5.1,19.6,1.7,10.5,9.8,23,14.6,37.2,12.8,5.7-.7,11.9-3.3,16.4-6.8,9.4-7.3,9-18.2-.8-25.1-5.6-3.9-12.2-6.4-18.5-9.1-8.9-3.8-18.1-6.9-26.9-10.7-14.4-6.2-23.4-16.8-23.6-33-.2-16.7,7.8-29,22.4-37,3.8-2.1,8-3.5,12.4-5.5Z" fill="#f63" stroke-width="0"></path></g></svg>