<svg xmlns="http://www.w3.org/2000/svg" id="Layer_2" width="836.7" height="813.2" viewBox="0 0 836.7 813.2"><g id="Layer_1-2"><path d="M705,627.6c17.1,0,32.8,0,48.6,0,20.2,0,40.4.1,60.6,0,9,0,16.4,2.4,20.6,11,4.2,8.7,1,15.9-4.6,22.8-15.7,19.3-31.1,38.8-47.1,58.9,13.5,16.9,26.9,33.7,40.3,50.5,3.1,3.9,6.4,7.6,9.3,11.7,9.2,13.1,1.9,28.9-14.1,30.5-2.2.2-4.4.1-6.6.1-71.7,0-143.3,0-215,0-14.8,0-17.8-3.1-17.9-18,0-7.7,0-15.4,0-23.8h-321.3c0,8.5,0,17.2,0,25.9,0,12.1-3.7,15.9-15.8,15.9-73,0-146.1,0-219.1,0-8.9,0-16.5-2.3-20.8-10.8-4.3-8.6-1.3-15.9,4.3-22.9,15.8-19.5,31.4-39.2,47.3-59.2-15.5-19.4-30.5-38.5-45.8-57.3-6.1-7.5-10.8-15-5.8-24.8,4.9-9.7,13.7-10.7,23.3-10.7,34.8.2,69.7,0,104.9,0,0-1.1.3-1.9,0-2.5-12.4-23.2-13.6-47.8-9.8-73.4,4.9-32.5-5.6-59.3-31.7-79.8-2.6-2-5.3-4-8-6-57.8-42.1-57.9-130,2-171.8,19.9-13.9,34.5-31.7,37.5-56.2,1.6-12.9.2-26.5-1.2-39.6-7.5-70.7,52.1-128,122.1-116.3,38,6.4,68.2-4.7,90.2-36.5,42.1-60.6,131.5-61.1,173.7-.4,15.1,21.8,35.1,36.1,62,38.2,9.5.8,19.3-.2,28.8-1.7,69.7-10.8,129.3,46,121.9,116.1-1.5,13.9-2.4,28.2-.8,42,2.4,20.4,14,36.3,30,48.9,2.6,2.1,5.2,4.1,7.9,6,58.9,41.8,59.2,130.3-.6,172.3-19.6,13.7-33.9,31.1-37.7,55.2-1.5,9.2-1.9,18.9-.4,28,4.1,26.4,2.9,51.8-11.1,77.2ZM418.2,585.6c44.8,0,89.6.1,134.4-.2,4.6,0,10-1.5,13.5-4.3,76.6-59.6,110.9-138.1,98.8-234.2-17.9-142.1-155.6-240.3-295.8-210-103.6,22.4-171,87.6-193.6,191.2-22.4,102.8,12.4,188.2,95.4,253.4,3.1,2.5,8,3.9,12,3.9,45.1.3,90.2.2,135.3.2ZM639.3,627.6c10.9,0,20.8-.3,30.7.1,5,.2,8-1.7,10.9-5.7,15-20.9,15.8-43.9,12.3-68.2-5.1-34.7,4.3-65.3,29.4-90.2,7.4-7.4,16.2-13.3,24.2-20.1,24.6-20.9,32.5-47.8,27.4-79.1-3.8-23.4-17.9-39.8-36.4-53.3-36.2-26.5-50.5-61.9-44.4-106.4,1.7-12.4,2-25.7-.6-37.8-9-42.5-51.3-69-96-61.4-31.9,5.4-61.4,0-86.6-20.8-9.5-7.8-17.3-17.8-25.1-27.4-11.8-14.5-25.5-26-44-30.8-36.2-9.5-68.2,2.1-91.6,34-27.8,37.9-64.5,52.6-110.8,44.8-43.7-7.3-85.7,19.5-94.6,61.4-2.8,13.1-1.7,27.5-.2,41.1,3.9,34.9-4.6,65.4-29.6,90.3-7.6,7.6-16.7,13.6-24.8,20.7-38.3,33.2-38.5,90.6-.3,124.1,4.4,3.8,9.1,7.2,13.7,10.8,33.1,26.1,46.7,60.1,40.5,101.7-3.5,24.1-2.3,46.9,12.9,67.2,1.5,2.1,3.9,4.8,6,4.9,11.5.5,23,.2,35.1.2,0-9.9,0-18.7,0-27.5.1-10.7,3.7-14.3,14.5-14.4,8.1,0,16.1,0,25.7,0-120.4-106.5-119.4-289.9-12.6-396.7,99.3-99.3,258.2-107.9,366.1-18.5,54.9,45.5,88.4,103.9,97.2,174.7,11.7,94.3-19.5,173.8-89.3,240.6,10.3,0,18.7-.1,27.2,0,9.1.2,13,4.1,13.1,13.3.2,9.1,0,18.2,0,28.7ZM615.4,747v-137.5H221.1v137.5h394.3ZM197.4,651.6H28.6c15.8,19.8,30.8,38.6,45.8,57.4,7.6,9.6,7.7,13.1.2,22.5-13.5,16.9-27,33.7-40.4,50.6-1.8,2.2-3.3,4.6-5.2,7.2h204.8v-18.6c-7.4,0-14.3,0-21.1,0-11.9-.1-15.4-3.5-15.4-15.3,0-31.5,0-63.1,0-94.6,0-3,0-5.9,0-9.1ZM602.6,789.1h205.5c-15.8-19.8-30.8-38.6-45.8-57.4-7.9-9.9-7.9-13,.2-23.1,13.3-16.6,26.6-33.3,39.9-49.9,1.7-2.2,3.3-4.5,5.3-7.2h-168.3v9.6c0,31.3,0,62.5,0,93.8,0,12.3-3.4,15.6-15.8,15.7-6.8,0-13.7,0-20.9,0v18.6Z" fill="#f63" stroke-width="0"></path><path d="M344.1,431.7c-21.7,0-42.4,0-63.1,0-4.7,0-9.5,0-14-1.1-23.2-5.8-34.8-30.7-24.6-52.3.9-1.9,2-3.8,3-5.6-18.7-21.8-18.7-37.8,0-59.7-10.8-23.7-8.6-34.7,8.7-52,0-11-1.2-19.8.3-28.2,2.4-13.4,15.1-24.5,28.5-25.3,43.6-2.6,87.2-5.8,130.8-6.2,19.6-.2,39.2,5.4,58.8,8.5,4.9.8,9.6,2.6,14.4,3.8,7.3,1.7,13.6,2.5,19.8-4.7,3.3-3.9,10.7-5.8,16.4-6.2,13.8-.9,27.6-.4,41.5-.2,15.2.2,26.4,11,26.5,26.1.2,58.1.2,116.2,0,174.3,0,14.4-10.8,25.2-25.1,25.6-14.6.4-29.3.6-44-.2-5.2-.3-10.9-2.5-15-5.7-4.1-3.2-7.4-3.5-12-2.5-42.6,9.1-63.6,33.1-66.1,77.2-.9,14.9-.3,29.9.5,44.8.9,17-7.5,26.8-24.5,27.4-25.4.8-43.3-10.9-53.3-35.4-11.1-27.2-10.3-55.7-8.6-84.2.3-5.7.9-11.4,1.4-18ZM496.3,240.5c-45.7-16.2-91.9-21.3-137.6-12.7-.6,10.8-1.1,21.3-1.8,32.7,18.3,15.7,20.7,32.3,7.1,55.3,3.2,4.9,6.4,9.9,9.1,14,9.9-4.5,19-9.2,28.5-12.8,6.6-2.5,12.9,1.1,14.6,7.2,1.8,6.5-.6,11.4-6.8,14.3-2.8,1.3-5.7,2.2-8.4,3.4-17.3,7.3-28.4,20-31.2,38.8-1.4,9.5-1.1,19.3-1.4,28.9-.3,7.7-.2,15.4-.5,23.2-.8,18.5-3.2,37.1-2.1,55.4.9,14.3,4.6,28.9,9.9,42.3,5.1,13.1,17,17.5,31,14.3,0-19.8-1.7-40.1.4-60,4.1-40.1,25.5-68.1,64.1-81.6,8.2-2.9,16.7-5.1,25.1-7.7v-154.9ZM519.9,314.5c0,27.7,0,55.3,0,83,0,4.6.1,8.2,6.4,8,11.9-.3,23.8-.2,35.7,0,4.2,0,5.8-1.6,5.8-5.9,0-55.9,0-111.7,0-167.6,0-4.6-1.6-6.4-6.3-6.3-11.1.2-22.1.4-33.2,0-6.6-.3-8.6,1.9-8.5,8.5.3,26.8.1,53.6.1,80.5ZM303.3,356.9c10.8,0,21.5.1,32.3,0,9.5-.1,16-6.1,15.9-14.3-.1-7.9-6.4-13.9-15.4-13.9-22.1-.2-44.1-.2-66.2,0-9.1,0-14.9,6-14.9,14.3,0,8.2,6,13.8,15.2,13.9,11,.2,22.1,0,33.1,0ZM305.4,277c-8.6,0-17.1,0-25.7,0-.6,0-1.1,0-1.7,0-9.7.3-15.9,5.9-15.8,14.3.1,8,6.2,13.9,15.3,14,18.8.2,37.5.2,56.3,0,9.3,0,15.2-5.7,15.3-13.9.1-8.5-5.9-14.2-15.6-14.3-9.4-.2-18.8,0-28.1,0ZM301.6,408.5c8.3,0,16.5.2,24.8,0,9-.2,15.2-6.2,15.1-14.1,0-7.6-6-13.9-14.5-14-16.8-.3-33.6-.3-50.4,0-9,.2-14.7,6.4-14.5,14.7.2,8,5.8,13.3,14.7,13.5,8.3.2,16.5,0,24.8,0ZM306.8,230.3c-6.4,0-12.7-.2-19.1,0-7.3.2-11.5,4.5-11.6,11.5,0,7,4.4,11.5,11.4,11.7,12.2.4,24.3.4,36.5,0,6.9-.2,11.5-4.3,11.5-11.6,0-7.3-4.1-11.3-11.3-11.6-5.8-.3-11.6,0-17.4,0Z" fill="#f63" stroke-width="0"></path></g></svg>